<svg xmlns="http://www.w3.org/2000/svg" viewBox="0 0 60 60"><defs><style>.cls-1{fill:#6cbfd8;}.cls-2{fill:#fff;}</style></defs><title>资源 5what we achieve</title><g id="图层_2" data-name="图层 2"><g id="abc"><circle class="cls-1" cx="30" cy="30" r="30"/><path class="cls-2" d="M40.3,31.34a11.11,11.11,0,0,0,1.18-5,11.48,11.48,0,0,0-23,0,11.11,11.11,0,0,0,1.18,5L15,39.3s3,.59,6,1.21L25,45l4.29-7.32c.24,0,.48,0,.73,0s.49,0,.73,0L35,45l4-4.45c3-.62,6-1.21,6-1.21ZM30,29a4,4,0,0,1-4-3.87A4.14,4.14,0,0,1,30,21,4,4,0,0,1,30,29Z"/></g></g></svg>