<svg xmlns="http://www.w3.org/2000/svg" viewBox="0 0 60.8 60"><defs><style>.cls-1{fill:#6cbfd8;}.cls-2{fill:#fff;}</style></defs><title>资源 3what we achieve</title><g id="图层_2" data-name="图层 2"><g id="abc"><ellipse class="cls-1" cx="30.4" cy="30" rx="30.4" ry="30"/><path class="cls-2" d="M24.75,16.33c-.56,1.51-.66,5.61,1.17,7.73a1.89,1.89,0,0,1,.14,1.68,3.26,3.26,0,0,1-.95,1.6A9,9,0,0,1,23.75,26c-1-1.17-2.3-2.63-3.95-3.09-.6-.16-1.26-.3-1.9-.43-1.79-.37-3.82-.79-4.29-1.79a6.93,6.93,0,0,1-.34-2.78,10.28,10.28,0,0,0-.66-4.34,4.21,4.21,0,0,0-2.67-2.31A28.18,28.18,0,0,1,42.51,5.13c-2,1.25-4.91,3.22-6.1,4.84-.44.59-.82,1.16-1.17,1.68-1.17,1.73-1.73,2.51-2.8,2.64a12.44,12.44,0,0,1-2,0C28.41,14.13,25.64,14,24.75,16.33Z"/><path class="cls-2" d="M51.12,42.74c0,4.75-1.77,7.32-2.46,8.14a28.26,28.26,0,0,1-9,5.17c1.66-3.06.39-6.7,0-7.76-.75-1.81-3.22-4.89-7.35-9.16-1.1-1.15-1-2-.63-4.63l0-.29c.27-1.79.72-2.85,6.8-3.8,3.09-.48,3.9.74,5,2.43l.38.55a6,6,0,0,0,3.06,2.44,23.14,23.14,0,0,1,2.1,1c2.13,1.2,2.13,2.56,2.13,5.53Z"/></g></g></svg>