<svg xmlns="http://www.w3.org/2000/svg" viewBox="0 0 60 60"><defs><style>.cls-1{fill:#6cbfd8;}.cls-2{fill:#fff;}</style></defs><title>资源 4what we achieve</title><g id="图层_2" data-name="图层 2"><g id="abc"><circle class="cls-1" cx="30" cy="30" r="30"/><path class="cls-2" d="M30.38,15a9.11,9.11,0,0,1,9.36,8.85,8.68,8.68,0,0,1-3.42,6.84C30,35.15,24,30.33,23.79,30.15A8.57,8.57,0,0,1,21,23.88h0A9.11,9.11,0,0,1,30.38,15Z"/><path class="cls-2" d="M45,40.94a2.68,2.68,0,0,1-1.25,2.14c-3.15,2.86-22.12,1.63-22.12,1.63h0c-6.35-.15-6.47-3.22-6.47-3.22-.67-2.94,5.34-7.3,7.6-8.81A14.34,14.34,0,0,0,28.89,35c.33,0,1.15,1.4,1.47,1.4S31.44,35,31.74,35a10.45,10.45,0,0,0,5.77-2.19l5.08,4.06c1.77,1.67,2.33,3,2.36,4Z"/></g></g></svg>