<svg xmlns="http://www.w3.org/2000/svg" xmlns:xlink="http://www.w3.org/1999/xlink" viewBox="0 0 40 40"><defs><style>.cls-1{fill:url(#未命名的渐变_13);}.cls-2{fill:url(#未命名的渐变_13-2);}</style><linearGradient id="未命名的渐变_13" x1="32.47" y1="35.79" x2="1.64" y2="4.95" gradientUnits="userSpaceOnUse"><stop offset="0" stop-color="#1994a6"/><stop offset="1" stop-color="#6de0ff"/></linearGradient><linearGradient id="未命名的渐变_13-2" x1="30.08" y1="-2.73" x2="30.08" y2="41.37" xlink:href="#未命名的渐变_13"/></defs><title>资源 17Android Data Recovery</title><g id="图层_2" data-name="图层 2"><g id="图层_1-2" data-name="图层 1"><path class="cls-1" d="M32,20v8a12,12,0,0,1-8,11.32,12.15,12.15,0,0,1-3.84.68h-.32A20,20,0,0,1,20,0h0a4,4,0,0,1,4,4V8H20.1A12,12,0,1,0,32,20Z"/><path class="cls-2" d="M40,0V20A20,20,0,0,1,20.16,40,12.15,12.15,0,0,0,24,39.32,12,12,0,0,0,32,28V4a4,4,0,0,1,4-4Z"/></g></g></svg>