<svg xmlns="http://www.w3.org/2000/svg" viewBox="0 0 63.55 34.46"><defs><style>.cls-1{fill:#e12524;}.cls-2{fill:#fff;}.cls-3{fill:none;}</style></defs><title>资源 11商标</title><g id="图层_2" data-name="图层 2"><g id="abc"><polygon class="cls-1" points="63.55 0 5.7 0 2.93 0 5.13 3.47 0.58 30.84 0 34.31 0 34.46 57.83 34.46 60.62 34.46 58.41 30.96 62.95 3.63 63.55 0"/><polygon class="cls-2" points="8.63 3.76 4.05 30.97 8.06 30.97 11.5 9.11 15.51 9.11 12.07 30.97 16.08 30.97 19.52 9.11 23.52 9.11 20.09 30.97 24.1 30.97 28.68 3.76 8.63 3.76"/><polygon class="cls-2" points="40.12 3.76 36.68 25.63 32.67 25.63 36.11 3.76 32.1 3.76 27.52 30.97 40.12 30.97 44.13 3.76 40.12 3.76"/><polygon class="cls-3" points="48.13 25.63 52.14 25.63 54.74 9.11 50.73 9.11 48.13 25.63"/><path class="cls-2" d="M55.58,3.76h-8L43.55,31H55L59.59,3.76ZM52.14,25.62h-4l2.6-16.51h4Z"/></g></g></svg>