<svg xmlns="http://www.w3.org/2000/svg" xmlns:xlink="http://www.w3.org/1999/xlink" viewBox="0 0 119.02 43.69"><defs><style>.cls-1{fill:#e91f2e;}.cls-2{fill:#2289c3;}.cls-3{fill:url(#未命名的渐变_10);}.cls-4{fill:#fff;}</style><linearGradient id="未命名的渐变_10" x1="102.31" y1="10.28" x2="102.31" y2="43.69" gradientUnits="userSpaceOnUse"><stop offset="0" stop-color="#40c4ed"/><stop offset="1" stop-color="#007dbb"/></linearGradient></defs><title>资源 7商标</title><g id="图层_2" data-name="图层 2"><g id="abc"><path class="cls-1" d="M41.82,4.9H40V6.75h-.61V4.9H37.51V4.29h1.85V2.44H40V4.29h1.85Z"/><path class="cls-1" d="M43.18,1.28a.5.5,0,0,1-.35-.14.48.48,0,0,1-.14-.35.5.5,0,0,1,.14-.35.51.51,0,0,1,.7,0,.46.46,0,0,1,.14.35.46.46,0,0,1-.14.35A.5.5,0,0,1,43.18,1.28Zm.37,5.47h-.76V2.47h.76Z"/><path class="cls-1" d="M45.94,4.27V6.75h-.77V.17H47a2.33,2.33,0,0,1,1.63.52,1.81,1.81,0,0,1,.58,1.45,2,2,0,0,1-.64,1.53,2.45,2.45,0,0,1-1.74.6Zm0-3.4v2.7h.81A1.78,1.78,0,0,0,48,3.2a1.28,1.28,0,0,0,.42-1c0-.87-.52-1.3-1.55-1.3Z"/><path class="cls-1" d="M53.45,6.64h-.76V5.91h0a1.58,1.58,0,0,1-1.45.84,1.54,1.54,0,0,1-1.1-.37,1.32,1.32,0,0,1-.4-1q0-1.31,1.56-1.53l1.4-.2c0-.79-.32-1.19-1-1.19a2.31,2.31,0,0,0-1.54.58V2.27a3,3,0,0,1,1.6-.44c1.1,0,1.66.59,1.66,1.76Zm-.76-2.37-1.13.15a1.92,1.92,0,0,0-.79.26.74.74,0,0,0-.26.66.71.71,0,0,0,.24.56.92.92,0,0,0,.65.22,1.21,1.21,0,0,0,.93-.39,1.43,1.43,0,0,0,.36-1Z"/><path class="cls-1" d="M59.31,6.64h-.78v-.8h0a1.84,1.84,0,0,1-1.69.91,1.87,1.87,0,0,1-1.48-.63,2.5,2.5,0,0,1-.55-1.72,2.71,2.71,0,0,1,.61-1.86A2.08,2.08,0,0,1,57,1.83a1.6,1.6,0,0,1,1.47.77h0V0h.78Zm-.78-2.12V3.83a1.3,1.3,0,0,0-.4-1,1.34,1.34,0,0,0-1-.39A1.39,1.39,0,0,0,56,3a2.13,2.13,0,0,0-.42,1.4A1.94,1.94,0,0,0,56,5.65a1.32,1.32,0,0,0,1.06.47,1.39,1.39,0,0,0,1.07-.45A1.69,1.69,0,0,0,58.53,4.52Z"/><path d="M1.57,15.81a1.57,1.57,0,0,1-1.11-.44A1.49,1.49,0,0,1,0,14.24a1.51,1.51,0,0,1,.46-1.13,1.54,1.54,0,0,1,1.11-.45,1.55,1.55,0,0,1,1.13.45,1.48,1.48,0,0,1,.47,1.13,1.45,1.45,0,0,1-.47,1.11A1.52,1.52,0,0,1,1.57,15.81Zm1.19,19H.33V18.91H2.76Z"/><path d="M8.76,26.05v8.79H6.27v-22h5.84a7.69,7.69,0,0,1,5.28,1.66,5.93,5.93,0,0,1,1.88,4.68,6.45,6.45,0,0,1-2.08,4.95,8,8,0,0,1-5.63,1.93Zm0-11V23.8h2.61a5.84,5.84,0,0,0,3.93-1.18,4.16,4.16,0,0,0,1.36-3.33c0-2.8-1.66-4.21-5-4.21Z"/><path d="M34.86,34.84H32.32V25.7q0-5-3.69-5a4,4,0,0,0-3.13,1.43,5.33,5.33,0,0,0-1.27,3.68v9H21.69V11.34h2.54V21.6h.06a5.78,5.78,0,0,1,5.21-3q5.36,0,5.36,6.46Z"/><path d="M44.32,34.84A7,7,0,0,1,39,32.71a7.84,7.84,0,0,1-2-5.63,8.25,8.25,0,0,1,2.09-6A7.53,7.53,0,0,1,44.68,19,6.8,6.8,0,0,1,50,21a8.31,8.31,0,0,1,1.91,5.8,8.2,8.2,0,0,1-2.05,5.82A7.23,7.23,0,0,1,44.32,34.84ZM44.5,21a4.64,4.64,0,0,0-3.71,1.59A6.56,6.56,0,0,0,39.43,27a6.18,6.18,0,0,0,1.38,4.25A4.68,4.68,0,0,0,44.5,32.8a4.43,4.43,0,0,0,3.62-1.53,6.61,6.61,0,0,0,1.27-4.34,6.72,6.72,0,0,0-1.27-4.39A4.4,4.4,0,0,0,44.5,21Z"/><path d="M67.85,34.84h-2.6V26q0-5-3.78-5a4.15,4.15,0,0,0-3.22,1.41A5.12,5.12,0,0,0,57,26v8.89h-2.6V19.25H57v2.59H57a5.93,5.93,0,0,1,5.33-3,5.08,5.08,0,0,1,4.08,1.65,7.18,7.18,0,0,1,1.41,4.78Z"/><path d="M83.65,27.51H72.6A5.57,5.57,0,0,0,74,31.42a4.92,4.92,0,0,0,3.7,1.38,7.89,7.89,0,0,0,4.86-1.69v2.28a9.31,9.31,0,0,1-5.46,1.45,6.71,6.71,0,0,1-5.21-2.07A8.23,8.23,0,0,1,70,27a8.17,8.17,0,0,1,2.07-5.78A6.78,6.78,0,0,1,77.22,19,6,6,0,0,1,82,20.88a7.89,7.89,0,0,1,1.68,5.35Zm-2.56-2.06a4.83,4.83,0,0,0-1-3.28A3.62,3.62,0,0,0,77.17,21a4.12,4.12,0,0,0-3,1.23,5.58,5.58,0,0,0-1.53,3.22Z"/><path class="cls-2" d="M48,43.55h-.68V39.63c0-.31,0-.68.06-1.13h0a3.25,3.25,0,0,1-.17.56l-2,4.49H44.9l-2-4.45a4.42,4.42,0,0,1-.17-.6h0q0,.34,0,1.14v3.91h-.66V37.71H43l1.79,4.08a4.63,4.63,0,0,1,.27.7h0c.11-.32.21-.56.28-.72l1.83-4.06H48Z"/><path class="cls-2" d="M54.27,43.55h-.76l-.62-1.63H50.41l-.58,1.63h-.76l2.24-5.84H52ZM52.66,41.3l-.91-2.49a2.3,2.3,0,0,1-.09-.39h0a2.91,2.91,0,0,1-.09.39l-.91,2.49Z"/><path class="cls-2" d="M59.66,43.06a3.93,3.93,0,0,1-2,.49,2.67,2.67,0,0,1-2-.8,3,3,0,0,1-.77-2.14,3,3,0,0,1,.86-2.23,2.91,2.91,0,0,1,2.17-.87,3.77,3.77,0,0,1,1.6.31v.76a3.06,3.06,0,0,0-1.68-.45,2.11,2.11,0,0,0-1.61.68,2.85,2.85,0,0,0,0,3.5,2,2,0,0,0,1.58.63A2.49,2.49,0,0,0,59,42.67V41H57.7v-.62h2Z"/><path class="cls-2" d="M65.87,43.55h-.75l-.62-1.63H62l-.58,1.63h-.77l2.24-5.84h.71Zm-1.6-2.25-.92-2.49a2.3,2.3,0,0,1-.09-.39h0a1.8,1.8,0,0,1-.1.39l-.9,2.49Z"/><path class="cls-2" d="M70.74,37.87l-3.43,5.06h3.35v.62H66.29v-.19l3.4-5H66.56v-.62h4.18Z"/><path class="cls-2" d="M78.92,43.55h-.84l-3-4.65a1.85,1.85,0,0,1-.19-.37h0a4.47,4.47,0,0,1,0,.8v4.22h-.69V37.71h.89L78,42.3a3.88,3.88,0,0,1,.23.39h0a5.85,5.85,0,0,1,0-.86V37.71h.68Z"/><path class="cls-2" d="M83.65,43.55H80.33V37.71h3.32v.62H81.1v1.94h2.55v.62H81.1v2h2.55Z"/><rect class="cls-2" x="72.07" y="37.71" width="0.68" height="5.84"/><rect class="cls-3" x="85.61" y="10.28" width="33.41" height="33.41" rx="7.59"/><path class="cls-4" d="M95.77,34.38H87.84V20.57h1.62V32.92h6.31Z"/><path class="cls-4" d="M98.61,22a1,1,0,0,1-.72-.29,1,1,0,0,1-.3-.74,1,1,0,0,1,1-1,1,1,0,0,1,.74.3,1,1,0,0,1,.3.73,1,1,0,0,1-.3.73A1,1,0,0,1,98.61,22Zm.77,12.36H97.8V24.52h1.58Z"/><path class="cls-4" d="M107.34,21.17a2,2,0,0,0-1-.26c-1.1,0-1.65.69-1.65,2.09v1.52H107v1.35h-2.31v8.51h-1.57V25.87h-1.69V24.52h1.69v-1.6a3.35,3.35,0,0,1,.89-2.45,3,3,0,0,1,2.24-.9,3.18,3.18,0,0,1,1.14.17Z"/><path class="cls-4" d="M116.78,29.63h-7a3.71,3.71,0,0,0,.89,2.54,3.05,3.05,0,0,0,2.33.9,4.85,4.85,0,0,0,3.06-1.1v1.48a5.69,5.69,0,0,1-3.43.95,4.17,4.17,0,0,1-3.29-1.35,5.46,5.46,0,0,1-1.19-3.78,5.4,5.4,0,0,1,1.3-3.75,4.17,4.17,0,0,1,3.24-1.45,3.74,3.74,0,0,1,3,1.25,5.22,5.22,0,0,1,1.06,3.48Zm-1.62-1.34a3.26,3.26,0,0,0-.66-2.13,2.24,2.24,0,0,0-1.81-.76,2.55,2.55,0,0,0-1.89.8,3.68,3.68,0,0,0-1,2.09Z"/></g></g></svg>