<svg xmlns="http://www.w3.org/2000/svg" viewBox="0 0 118.37 25.32"><title>资源 8商标</title><g id="图层_2" data-name="图层 2"><g id="abc"><path d="M11.18,7.31H2.09A2.1,2.1,0,0,0,0,9.4v9.09a2.1,2.1,0,0,0,2.09,2.09h9.09V18.49H2.09V16.36h9.09a2.1,2.1,0,0,0,2.09-2.09V9.4h0A2.1,2.1,0,0,0,11.18,7.31Zm0,7H2.09V9.4h9.09Z"/><path d="M28.85,20.36H26.77V11.49A2.09,2.09,0,0,0,24.68,9.4h-7v11H15.59V9.4a2.09,2.09,0,0,1,2.08-2.09h7a4.18,4.18,0,0,1,4.17,4.18Z"/><path d="M42.51,7.31H33.42A2.1,2.1,0,0,0,31.33,9.4v9.09a2.1,2.1,0,0,0,2.09,2.09h9.09v2.65H33.42v2.09h9.09a2.09,2.09,0,0,0,2.09-2.09V9.4A2.09,2.09,0,0,0,42.51,7.31ZM33.42,18.49V9.4h9.09v9.09Z"/><path d="M60.53,9.4a2.1,2.1,0,0,0-2.09-2.09h-7a4.18,4.18,0,0,0-4.17,4.18v7a2.09,2.09,0,0,0,2.09,2.09h6l2.55-2.09H49.35v-7A2.08,2.08,0,0,1,51.43,9.4h7V20.58h2.09Z"/><path d="M73.93,0V7.31h-9.1A2.1,2.1,0,0,0,62.74,9.4v9.09a2.1,2.1,0,0,0,2.09,2.09H76V0Zm-9.1,9.4h9.1v9.09h-9.1Z"/><path d="M105.15,7.31H96.06A2.1,2.1,0,0,0,94,9.4v9.09a2.1,2.1,0,0,0,2.09,2.09h9.09V18.49H96.06V16.36h9.09a2.1,2.1,0,0,0,2.09-2.09V9.4h0A2.1,2.1,0,0,0,105.15,7.31Zm0,7H96.06V9.4h9.09Z"/><polygon points="118.36 6.92 111.3 6.92 111.3 0 109.21 0 109.21 20.59 111.3 20.59 111.3 9.01 118.36 9.01 118.36 6.92"/><path d="M89.59,7.31h-9.1A2.09,2.09,0,0,0,78.41,9.4v9.09a2.09,2.09,0,0,0,2.08,2.09h9.1v2.65h-9.1v2.09h9.1a2.1,2.1,0,0,0,2.09-2.09V9.4A2.1,2.1,0,0,0,89.59,7.31Zm-9.1,11.18V9.4h9.1v9.09Z"/></g></g></svg>