<svg xmlns="http://www.w3.org/2000/svg" viewBox="0 0 134.22 22.23"><defs><style>.cls-1{fill:#2f6e90;}.cls-2{fill:#e52489;}</style></defs><title>资源 10商标</title><g id="图层_2" data-name="图层 2"><g id="abc"><path class="cls-1" d="M10.71,6.31V9.59h-3v6.28a14,14,0,0,0,.09,2.22.92.92,0,0,0,.4.52,1.27,1.27,0,0,0,.75.2,6.18,6.18,0,0,0,1.78-.39v3.19a7.5,7.5,0,0,1-3.13.62,5.9,5.9,0,0,1-2.16-.37,3.2,3.2,0,0,1-1.41-1,3.6,3.6,0,0,1-.62-1.61,17.53,17.53,0,0,1-.15-2.9V9.59H0V6.31H3.23v-6H7.68v6Z"/><path class="cls-1" d="M22.91,16.66h4.17A8.91,8.91,0,0,1,24.3,21a7.87,7.87,0,0,1-4.6,1.27c-2.91,0-5-.81-6.52-2.66a8.93,8.93,0,0,1-1.95-5.78,9.93,9.93,0,0,1,2.52-6.72,7.2,7.2,0,0,1,5.51-2.36,7.41,7.41,0,0,1,5.9,2.47q2.18,2.48,2.07,7.57H16.12a4.51,4.51,0,0,0,1.07,3.07,3.38,3.38,0,0,0,2.56,1.1,3.08,3.08,0,0,0,1.78-.55A4.76,4.76,0,0,0,22.91,16.66ZM22.83,12a4.19,4.19,0,0,0-1-2.92,3,3,0,0,0-2.3-1,3.1,3.1,0,0,0-2.4,1.06A4.1,4.1,0,0,0,16.2,12Z"/><path class="cls-1" d="M44.5,10.85H40.15a3.28,3.28,0,0,0-1.13-2,3.06,3.06,0,0,0-2-.66,3.33,3.33,0,0,0-2.65,1.14,5.93,5.93,0,0,0-1,3.83c0,2,.33,3.39,1,4.21a3.27,3.27,0,0,0,2.69,1.24,3,3,0,0,0,2.07-.72,3.28,3.28,0,0,0,1-2.13H44.5A8.1,8.1,0,0,1,42,20.7a8.1,8.1,0,0,1-5.17,1.53A7.66,7.66,0,0,1,31,19.91a9,9,0,0,1-2.18-6.42A9,9,0,0,1,31,7a7.79,7.79,0,0,1,5.93-2.31,8.6,8.6,0,0,1,5.16,1.55A7.59,7.59,0,0,1,44.5,10.85Z"/><path class="cls-1" d="M50.13.29V7.6A6.64,6.64,0,0,1,58,5.66a4.57,4.57,0,0,1,1.86,1.45,5.46,5.46,0,0,1,.85,2A17.61,17.61,0,0,1,61,12.4v9.83H56.52V13.38A13.08,13.08,0,0,0,56.27,10a2.26,2.26,0,0,0-.89-1.13,2.88,2.88,0,0,0-1.61-.42,3.67,3.67,0,0,0-2,.54,3.11,3.11,0,0,0-1.27,1.62,9.58,9.58,0,0,0-.4,3.19v8.4H45.69V.29Z"/><path class="cls-1" d="M66.63,22.23H62.2V5.47h4.12V7.85A5.12,5.12,0,0,1,68.22,6a3.64,3.64,0,0,1,1.92-.53c1,0,1.66,0,2.77,0V9.05H69.6A2.51,2.51,0,0,0,68,9.58a3.46,3.46,0,0,0-1,1.85,26,26,0,0,0-.38,5.62Z"/><path class="cls-1" d="M77.52,10.2h-4a7,7,0,0,1,2.34-4.32,8.39,8.39,0,0,1,4.9-1.28,10.59,10.59,0,0,1,4.44.81,4.47,4.47,0,0,1,2,1.79,9.21,9.21,0,0,1,.59,4l0,5.17A18.19,18.19,0,0,0,88,19.6a7.55,7.55,0,0,0,.64,2H84.22c-.12-.29-.09-.5-.26-1.08-.08-.26-.13-.44-.16-.52a8,8,0,0,1-2.43,1.66,6.94,6.94,0,0,1-2.76.55,5.72,5.72,0,0,1-4.08-1.4A4.67,4.67,0,0,1,73,17.27a4.79,4.79,0,0,1,.68-2.53A4.45,4.45,0,0,1,75.62,13a14.76,14.76,0,0,1,3.52-1,23.77,23.77,0,0,0,4.31-1.09v-.44a2.29,2.29,0,0,0-.63-1.82A3.62,3.62,0,0,0,80.46,8a3.25,3.25,0,0,0-1.87.59A3.2,3.2,0,0,0,77.52,10.2Zm5.93,3.6a26.85,26.85,0,0,1-2.7.68,8.12,8.12,0,0,0-2.41.77,1.86,1.86,0,0,0-.87,1.57,2.2,2.2,0,0,0,.69,1.61,2.45,2.45,0,0,0,1.77.67,3.88,3.88,0,0,0,2.29-.78,2.77,2.77,0,0,0,1.06-1.47,9.12,9.12,0,0,0,.17-2.16Z"/><path class="cls-1" d="M105.19,21.85h-4.11V19.39a6.73,6.73,0,0,1-2.43,2.14,6.18,6.18,0,0,1-2.81.7,6.39,6.39,0,0,1-5-2.33,9.42,9.42,0,0,1-2.06-6.49q0-4.26,2-6.48A6.55,6.55,0,0,1,95.9,4.71a6.28,6.28,0,0,1,4.86,2.34V0h4.43ZM93.36,13.11A7.61,7.61,0,0,0,94.1,17a3.34,3.34,0,0,0,3,1.74,3.25,3.25,0,0,0,2.6-1.31,6,6,0,0,0,1.08-3.89,6.56,6.56,0,0,0-1-4.16,3.42,3.42,0,0,0-5.31,0A5.67,5.67,0,0,0,93.36,13.11Z"/><path class="cls-1" d="M110.74,10.2h-4a7,7,0,0,1,2.34-4.32A8.41,8.41,0,0,1,114,4.6a10.56,10.56,0,0,1,4.44.81,4.47,4.47,0,0,1,2,1.79,9.21,9.21,0,0,1,.59,4l0,5.17a17.09,17.09,0,0,0,.22,3.26,7.16,7.16,0,0,0,.63,2h-4.39c-.11-.29-.09-.5-.26-1.08-.07-.26-.13-.44-.16-.52a8,8,0,0,1-2.43,1.66,6.91,6.91,0,0,1-2.76.55,5.72,5.72,0,0,1-4.08-1.4,4.66,4.66,0,0,1-1.49-3.56,4.7,4.7,0,0,1,.68-2.53,4.36,4.36,0,0,1,1.9-1.7,14.76,14.76,0,0,1,3.52-1,23.77,23.77,0,0,0,4.31-1.09v-.44A2.29,2.29,0,0,0,116,8.65,3.62,3.62,0,0,0,113.68,8a3.25,3.25,0,0,0-1.87.59A3.2,3.2,0,0,0,110.74,10.2Zm5.93,3.6a25.46,25.46,0,0,1-2.7.68,8.12,8.12,0,0,0-2.41.77,1.86,1.86,0,0,0-.87,1.57,2.17,2.17,0,0,0,.7,1.61,2.41,2.41,0,0,0,1.76.67,3.86,3.86,0,0,0,2.29-.78,2.77,2.77,0,0,0,1.06-1.47,8.6,8.6,0,0,0,.17-2.16Z"/><path class="cls-1" d="M127.59,22.23h-4.43V5.47h4.12V7.85A5.05,5.05,0,0,1,129.18,6a3.64,3.64,0,0,1,1.92-.53c1,0,1.66,0,2.77,0V9.05h-3.31a2.49,2.49,0,0,0-1.58.53,3.53,3.53,0,0,0-1,1.85,26.94,26.94,0,0,0-.37,5.62Z"/><rect class="cls-2" x="129.31" y="16.34" width="4.91" height="4.91"/></g></g></svg>