<svg xmlns="http://www.w3.org/2000/svg" viewBox="0 0 149.08 23.92"><defs><style>.cls-1{fill:#293132;}</style></defs><title>资源 9商标</title><g id="图层_2" data-name="图层 2"><g id="abc"><path class="cls-1" d="M18.06,0H4.15L4,.8,0,23.92H4L7.51,3.73H18.06a5.07,5.07,0,0,1,0,10.14H13.72l.59-2.9h4.46l.7-4H11l-3.32,17h4L13,17.6h5.09a8.8,8.8,0,0,0,0-17.6Z"/><path class="cls-1" d="M27.33,23.92H25.74l1.62-7.72H30.5a3.59,3.59,0,0,1,1.32.2,1.6,1.6,0,0,1,.78.65,2.1,2.1,0,0,1,.28,1.09,3,3,0,0,1-.23,1.14,2.7,2.7,0,0,1-.55.88,2.36,2.36,0,0,1-.71.5,3.57,3.57,0,0,1-1,.26A10.64,10.64,0,0,1,29,21H28Zm.88-4.22h.49a5.88,5.88,0,0,0,1.68-.16,1.44,1.44,0,0,0,.67-.51,1.29,1.29,0,0,0,.24-.76.81.81,0,0,0-.12-.46.77.77,0,0,0-.35-.26,3.93,3.93,0,0,0-1-.08H28.68Z"/><path class="cls-1" d="M38.5,22.21H35.44l-.93,1.71H32.88l4.37-7.72H39l1.25,7.72h-1.5Zm-.2-1.28-.44-3.11L36,20.93Z"/><path class="cls-1" d="M45,23.92H43.39l.63-3L41.89,16.2h1.69l1,2.18c.23.52.38.9.46,1.13q.2-.35.45-.72l.73-1,1.09-1.56h1.85l-3.54,4.86Z"/><path class="cls-1" d="M49.12,23.92l1.61-7.72h5.72l-.27,1.29H52.05l-.37,1.75h4l-.27,1.29h-4l-.48,2.1h4.49l-.27,1.29Z"/><path class="cls-1" d="M60.86,23.92H59.27l1.35-6.43H58.36l.27-1.29h6.08l-.27,1.29H62.21Z"/><path class="cls-1" d="M68.81,23.92H67.22l1.35-6.43H66.31l.26-1.29h6.09l-.27,1.29H70.16Z"/><path class="cls-1" d="M73.07,23.92l1.61-7.72H80.4l-.27,1.29H76l-.37,1.75h4l-.27,1.29h-4l-.48,2.1h4.49l-.28,1.29Z"/><path class="cls-1" d="M84.93,23.92l1.62-7.72H92l-.27,1.29H87.86l-.39,1.85h3.74l-.27,1.29H87.2l-.68,3.29Z"/><path class="cls-1" d="M93.8,20.76A5.46,5.46,0,0,1,94,19.31a5.1,5.1,0,0,1,.82-1.76,3.94,3.94,0,0,1,1.38-1.18,4.1,4.1,0,0,1,1.91-.44,3.11,3.11,0,0,1,2.31.89,3.2,3.2,0,0,1,.89,2.36,5.08,5.08,0,0,1-.58,2.36,4.19,4.19,0,0,1-1.56,1.76,4.1,4.1,0,0,1-2.22.62,3.19,3.19,0,0,1-1.82-.49,2.77,2.77,0,0,1-1-1.21A3.65,3.65,0,0,1,93.8,20.76Zm1.57,0a1.91,1.91,0,0,0,.49,1.34,1.64,1.64,0,0,0,1.27.53,2.08,2.08,0,0,0,1.23-.42,3,3,0,0,0,1-1.29,4,4,0,0,0,.39-1.67,2,2,0,0,0-.49-1.43A1.62,1.62,0,0,0,98,17.26a2.21,2.21,0,0,0-1.89,1.08A4.17,4.17,0,0,0,95.37,20.72Z"/><path class="cls-1" d="M104.49,23.92H102.9l1.62-7.72h3.42a4.19,4.19,0,0,1,1.38.18,1.57,1.57,0,0,1,.8.67,2.17,2.17,0,0,1,.3,1.17,2.33,2.33,0,0,1-.59,1.63,2.85,2.85,0,0,1-1.79.79,2.9,2.9,0,0,1,.58.72,19.08,19.08,0,0,1,1.18,2.56h-1.7c-.14-.44-.41-1.11-.81-2a2.39,2.39,0,0,0-.69-1,1.44,1.44,0,0,0-.79-.16h-.65Zm.91-4.36h.84a6.08,6.08,0,0,0,1.7-.15,1.36,1.36,0,0,0,.66-.48,1.16,1.16,0,0,0,.23-.68.69.69,0,0,0-.34-.63,2,2,0,0,0-.91-.13h-1.75Z"/><path class="cls-1" d="M119.57,23.92H118l-.17-5.65L115,23.92h-1.64l-.29-7.72h1.55l.07,5.4,2.65-5.4H119l.18,5.34,2.55-5.34h1.53Z"/><path class="cls-1" d="M128.92,22.21h-3.06l-.92,1.71H123.3l4.37-7.72h1.76l1.26,7.72h-1.51Zm-.19-1.28-.45-3.11-1.86,3.11Z"/><path class="cls-1" d="M134.44,23.92h-1.59l1.61-7.72h3.43a4.19,4.19,0,0,1,1.38.18,1.51,1.51,0,0,1,.79.67,2.08,2.08,0,0,1,.31,1.17,2.33,2.33,0,0,1-.59,1.63,2.87,2.87,0,0,1-1.79.79,2.9,2.9,0,0,1,.58.72,19.08,19.08,0,0,1,1.18,2.56h-1.7c-.14-.44-.41-1.11-.81-2a2.31,2.31,0,0,0-.7-1,1.39,1.39,0,0,0-.79-.16h-.64Zm.91-4.36h.84a6.12,6.12,0,0,0,1.7-.15,1.36,1.36,0,0,0,.66-.48,1.16,1.16,0,0,0,.23-.68.69.69,0,0,0-.34-.63,2,2,0,0,0-.91-.13h-1.75Z"/><path class="cls-1" d="M141.74,23.92l1.61-7.72h2.08q.87,0,1.11,0a3.11,3.11,0,0,1,.86.19,2.47,2.47,0,0,1,.68.41,2.78,2.78,0,0,1,.54.64,3.1,3.1,0,0,1,.34.87,4.41,4.41,0,0,1,.12,1.06,5.1,5.1,0,0,1-.47,2.22,4.45,4.45,0,0,1-1.2,1.53,3.57,3.57,0,0,1-1.43.65,7,7,0,0,1-1.52.12Zm1.84-1.24h.81a5.4,5.4,0,0,0,1.27-.11,1.84,1.84,0,0,0,.72-.4,3.66,3.66,0,0,0,.79-1.14,4.13,4.13,0,0,0,.32-1.68,2.29,2.29,0,0,0-.27-1.23,1.3,1.3,0,0,0-.65-.55,3.53,3.53,0,0,0-1-.1h-.92Z"/></g></g></svg>