<svg xmlns="http://www.w3.org/2000/svg" xmlns:xlink="http://www.w3.org/1999/xlink" viewBox="0 0 39.99 39.99"><defs><style>.cls-1{fill:url(#未命名的渐变_13);}.cls-2{fill:url(#未命名的渐变_13-2);}.cls-3{fill:url(#未命名的渐变_13-3);}</style><linearGradient id="未命名的渐变_13" x1="1.78" y1="21.25" x2="21.76" y2="1.27" gradientUnits="userSpaceOnUse"><stop offset="0" stop-color="#1994a6"/><stop offset="1" stop-color="#6de0ff"/></linearGradient><linearGradient id="未命名的渐变_13-2" x1="16.82" y1="40.12" x2="37" y2="19.94" xlink:href="#未命名的渐变_13"/><linearGradient id="未命名的渐变_13-3" x1="2437.78" y1="4377.49" x2="2437.78" y2="4417.49" gradientTransform="translate(1405.72 -4813.28) rotate(45)" xlink:href="#未命名的渐变_13"/></defs><title>资源 16Broken Android Data Extraction</title><g id="图层_2" data-name="图层 2"><g id="图层_1-2" data-name="图层 1"><path class="cls-1" d="M9.42,25l-.73.73A5,5,0,0,1,.15,22.21l0-.07c0-.16,0-.31,0-.46s0-.36,0-.54,0-.52,0-.79,0-.26,0-.39v-.11q0-.44,0-.87c0-.14,0-.28,0-.42,0-.43.07-.86.13-1.29A20,20,0,0,1,17.27.18c.45-.06.89-.1,1.33-.13L19,0l.9,0h.51c.28,0,.56,0,.84,0l.52,0,.33,0a.3.3,0,0,1,.14.5L11.45,11.45A11.74,11.74,0,0,0,10,13.13a12,12,0,0,0-.92,1.58,12.39,12.39,0,0,0-1.06,3.36,12.19,12.19,0,0,0,.87,6.79.28.28,0,0,0,.3.17A.29.29,0,0,0,9.42,25Z"/><path class="cls-2" d="M34.14,34.13a19.91,19.91,0,0,1-11.43,5.68c-.42,0-.85.1-1.28.13L21,40l-.86,0h-.51l-.79,0-.53,0-.46,0-.08,0a5,5,0,0,1-3.46-8.53l.73-.73a.34.34,0,0,0-.09.19.3.3,0,0,0,.18.3,11.8,11.8,0,0,0,2.51.79,12.07,12.07,0,0,0,7.63-1,12,12,0,0,0,3.27-2.33L39.37,17.71a.3.3,0,0,1,.5.14l0,.33c0,.17,0,.35,0,.52s0,.56,0,.84,0,.34,0,.51,0,.6,0,.9c0,.14,0,.29,0,.43,0,.45-.07.89-.13,1.33A19.9,19.9,0,0,1,34.14,34.13Z"/><path class="cls-3" d="M17.85,39.87l-.58-.06-.24,0a19.65,19.65,0,0,1-5.61-1.7,21,21,0,0,1-2.48-1.4l0,0-.07,0-.07-.06-.13-.08c-.15-.11-.31-.21-.46-.33l-.29-.22-.43-.33-.38-.32c-.11-.09-.22-.18-.32-.28s-.46-.41-.68-.63l-.23-.21-.22-.23L5,33.23l-.27-.32c-.11-.13-.22-.25-.32-.38l-.33-.43-.23-.29-.32-.47-.09-.13,0-.07-.05-.06,0,0A19.94,19.94,0,0,1,.21,23l0-.25c0-.19,0-.38-.06-.57l0,.07h0a5,5,0,0,0,8.6,3.39L22.37,12h0L30.1,4.25a1.72,1.72,0,0,1,2.43,0l3.21,3.2a1.73,1.73,0,0,1,0,2.44L28,17.62h0L14.31,31.3a5,5,0,0,0,3.46,8.53h0Z"/></g></g></svg>