<svg xmlns="http://www.w3.org/2000/svg" xmlns:xlink="http://www.w3.org/1999/xlink" viewBox="0 0 100 100"><defs><style>.cls-1{fill:url(#未命名的渐变_168);}.cls-2{fill:#fff;}</style><linearGradient id="未命名的渐变_168" x1="50" x2="50" y2="85.04" gradientUnits="userSpaceOnUse"><stop offset="0" stop-color="#a3c2ff"/><stop offset="1" stop-color="#5c83da"/></linearGradient></defs><title>choose3</title><g id="图层_2" data-name="图层 2"><g id="abc"><rect class="cls-1" width="100" height="100" rx="50" ry="50"/><path class="cls-2" d="M50,65A13.54,13.54,0,0,1,36.52,52.47a1,1,0,0,1,1-1.06h3.86a1,1,0,0,1,1,.86,7.71,7.71,0,0,0,15.38-.86c0-3.58-3.07-5.91-6.56-6.59a1,1,0,0,0-1.15,1v1.8a1,1,0,0,1-1.54.8L40.75,43a1,1,0,0,1-.41-.8h0a1,1,0,0,1,.36-.76l7.69-6.19A1,1,0,0,1,50,36v2a1,1,0,0,0,.88,1c6.73.76,12.62,5.61,12.62,12.5A13.54,13.54,0,0,1,50,65Z"/></g></g></svg>