<svg xmlns="http://www.w3.org/2000/svg" xmlns:xlink="http://www.w3.org/1999/xlink" viewBox="0 0 100 100"><defs><style>.cls-1{fill:url(#未命名的渐变_181);}.cls-2{fill:#fff;}</style><linearGradient id="未命名的渐变_181" x1="50" x2="50" y2="85.04" gradientUnits="userSpaceOnUse"><stop offset="0" stop-color="#94cbff"/><stop offset="1" stop-color="#457cda"/></linearGradient></defs><title>choose4</title><g id="图层_2" data-name="图层 2"><g id="abc"><rect class="cls-1" width="100" height="100" rx="50" ry="50"/><path class="cls-2" d="M39,41l2.5-3h17L61,41ZM54,55v4H46V55H40l9.31-9.71a1,1,0,0,1,1.37,0L60,55Zm9.44-13.83-2.89-4.33A2.08,2.08,0,0,0,59,36H41a2.1,2.1,0,0,0-1.55.83l-2.89,4.33A3.89,3.89,0,0,0,36,43V62a2,2,0,0,0,2,2H62a2,2,0,0,0,2-2V43a3.85,3.85,0,0,0-.56-1.84"/></g></g></svg>