<svg xmlns="http://www.w3.org/2000/svg" xmlns:xlink="http://www.w3.org/1999/xlink" viewBox="0 0 120 120"><defs><style>.cls-1{fill:url(#未命名的渐变_244);}.cls-2{fill:url(#未命名的渐变_244-2);}.cls-3{fill:url(#未命名的渐变_244-3);}</style><linearGradient id="未命名的渐变_244" x1="51.74" y1="44.61" x2="1.08" y2="90.56" gradientUnits="userSpaceOnUse"><stop offset="0" stop-color="#aef0ff"/><stop offset="1" stop-color="#1b96cc"/></linearGradient><linearGradient id="未命名的渐变_244-2" x1="46.83" y1="20.37" x2="97.28" y2="77.36" xlink:href="#未命名的渐变_244"/><linearGradient id="未命名的渐变_244-3" x1="112.53" y1="36.12" x2="17.34" y2="88.61" xlink:href="#未命名的渐变_244"/></defs><title>data-recovery</title><g id="图层_2" data-name="图层 2"><g id="图层_1-2" data-name="图层 1"><path class="cls-1" d="M72,60h0A12,12,0,0,1,60,72H48a23.91,23.91,0,0,0-17.91,8h0a23.66,23.66,0,0,0-2.52,3.37A23.92,23.92,0,0,0,24,96V72H12A12,12,0,0,1,0,60H0A12,12,0,0,1,12,48H24V36A12,12,0,0,1,36,24h0A12,12,0,0,1,48,36V48H60A12,12,0,0,1,72,60Z"/><path class="cls-2" d="M101.57,72A47.86,47.86,0,0,1,72,94.48a48.61,48.61,0,0,1-11,1.51,36,36,0,0,0-.68-72h-.52A11.87,11.87,0,0,1,54,22.39,12,12,0,0,1,60,0h0c1,0,1.9,0,2.84.07A48,48,0,0,1,101.57,72Z"/><path class="cls-3" d="M120,60a60,60,0,0,1-60,60H48A24,24,0,0,1,27.57,83.4,23.66,23.66,0,0,1,30.09,80h0A23.91,23.91,0,0,1,48,72H60A12,12,0,0,0,48,83.85v.31A12,12,0,0,0,60,96h.93a48.61,48.61,0,0,0,11-1.51A48,48,0,0,0,62.85.07,60,60,0,0,1,120,60Z"/></g></g></svg>