<svg xmlns="http://www.w3.org/2000/svg" viewBox="0 0 36.54 36.54"><defs><style>.cls-1{opacity:0.7;}.cls-2{fill:#fff;}</style></defs><title>logo</title><g id="图层_2" data-name="图层 2"><g id="abc"><g class="cls-1"><circle class="cls-2" cx="19.64" cy="12.82" r="0.91"/><path class="cls-2" d="M18.14,0A18.21,18.21,0,0,0,5.86,4.86,18.49,18.49,0,0,0,4.05,6.79,18.3,18.3,0,0,0,1,24.15a.38.38,0,0,0,.61.17,13.21,13.21,0,0,0,4.11-6.1c0,.23,0,.46,0,.7a11.2,11.2,0,0,0,1.4,5.45h0A5,5,0,0,0,16.55,22s0-.08,0-.11a5,5,0,0,0-2-3.89l0,0-.34-.27a7,7,0,0,1-2.46-5.35,7.13,7.13,0,0,1,0-.83,7,7,0,0,1,.17-.92,4.14,4.14,0,0,1,4-2.93h.3l.27,0h0a4,4,0,0,1,1.17.34h0l.06,0h0a8.46,8.46,0,0,1,3.47,2.52l.24.31c.16.2.34.4.52.59l.3.32a11.82,11.82,0,0,0,5.2,3h0l.28.08.63.14a2.07,2.07,0,1,0,3.4,2.36l.09-.16h0v0h0l0,.05a1.55,1.55,0,0,1-.08.2,7.92,7.92,0,0,1-7.88,7l-.52,0q-.36,0-.72-.08l-.57,0a8.38,8.38,0,0,0-8.38,7.92c0,.15,0,.31,0,.46a8.45,8.45,0,0,0,.12,1.42A2.52,2.52,0,0,0,16,36.4,18.27,18.27,0,1,0,18.14,0ZM31.79,17.16c0-.06,0-.13,0-.19s0,0,0,.05S31.79,17.12,31.79,17.16Zm0-.89a1.3,1.3,0,0,1,.07.22A1.87,1.87,0,0,0,31.79,16.27Zm.11.54a1.53,1.53,0,0,0,0-.16A1.11,1.11,0,0,1,31.91,16.81Zm0,.16h0v0h0s0-.07,0-.1,0,0,0,0,0,0,0,.07Z"/></g></g></g></svg>