<svg id="图层_1" data-name="图层 1" xmlns="http://www.w3.org/2000/svg" xmlns:xlink="http://www.w3.org/1999/xlink" viewBox="0 0 122 122"><defs><style>.cls-1{fill:none;}.cls-2{clip-path:url(#clip-path);}.cls-3{fill:url(#未命名的渐变_75);}.cls-4{fill:url(#未命名的渐变_244);}.cls-5{fill:url(#未命名的渐变_244-2);}.cls-6{fill:url(#未命名的渐变_244-3);}</style><clipPath id="clip-path"><rect class="cls-1" x="584.16" y="-216.98" width="2048" height="608"/></clipPath><linearGradient id="未命名的渐变_75" x1="971.32" y1="138.27" x2="589.88" y2="-71.6" gradientTransform="translate(328.52 -605.9) rotate(81.17)" gradientUnits="userSpaceOnUse"><stop offset="0" stop-color="#aef0ff" stop-opacity="0"/><stop offset="1" stop-color="#1b96cc" stop-opacity="0.3"/></linearGradient><linearGradient id="未命名的渐变_244" x1="101.24" y1="40.27" x2="-30.61" y2="81.63" gradientUnits="userSpaceOnUse"><stop offset="0" stop-color="#aef0ff"/><stop offset="1" stop-color="#1b96cc"/></linearGradient><linearGradient id="未命名的渐变_244-2" x1="95.01" y1="86.71" x2="61.52" y2="25.44" xlink:href="#未命名的渐变_244"/><linearGradient id="未命名的渐变_244-3" x1="49" y1="73.32" x2="96.99" y2="73.32" xlink:href="#未命名的渐变_244"/></defs><title>Phone Transfer logo</title><g class="cls-2"><ellipse class="cls-3" cx="517.91" cy="-111.2" rx="278.81" ry="613.57" transform="matrix(0.15, -0.99, 0.99, 0.15, 548.27, 417.65)"/></g><path class="cls-4" d="M121,48.07A36,36,0,0,0,85,13a35.23,35.23,0,0,0-4,.22A36,36,0,0,0,49,49v72A24,24,0,0,1,25,97V37A12,12,0,0,0,13,25H1A24,24,0,0,1,25,1H73a48,48,0,0,1,48,47.07Z"/><path class="cls-5" d="M121,49v.53c0,.13,0,.27,0,.4A48,48,0,0,1,73,97H49A48,48,0,0,0,97,49.64v0c0-.21,0-.41,0-.62a24,24,0,0,0-48,0A36,36,0,0,1,81,13.22,35.23,35.23,0,0,1,85,13a36,36,0,0,1,36,35.07c0,.13,0,.27,0,.4V49Z"/><path class="cls-6" d="M97,49.64A47.93,47.93,0,0,1,49,97V73H73A24,24,0,0,0,97,49.64Z"/></svg>